<?xml version="1.0" standalone="no"?><!DOCTYPE svg PUBLIC "-//W3C//DTD SVG 1.1//EN" "http://www.w3.org/Graphics/SVG/1.1/DTD/svg11.dtd"><svg t="1532672240434" class="icon" style="" viewBox="0 0 1027 1024" version="1.1" xmlns="http://www.w3.org/2000/svg" p-id="17400" xmlns:xlink="http://www.w3.org/1999/xlink" width="32.09375" height="32"><defs><style type="text/css"></style></defs><path d="M990.70976 520.27392l-0.30208-1.34656a63.65696 63.65696 0 0 0-6.58944-16.45568l-2.52928-4.39808a881.27488 881.27488 0 0 0-107.24864-140.04224 693.97504 693.97504 0 0 0-72.78592-67.49184L902.4512 190.976a30.72 30.72 0 0 0 0.34816-43.4432 30.71488 30.71488 0 0 0-43.43808-0.35328l-108.57984 106.83904-4.81792-3.4304-1.38752-0.92672c-48.93184-30.92992-99.35872-52.06016-149.86752-62.7968-23.41376-4.98688-48.15872-7.8336-73.5488-8.47872l-13.53728-0.01024-0.77824 0.01024c-25.39008 0.64512-50.13504 3.49696-73.55392 8.47872-94.96064 20.224-186.50112 75.27936-272.128 163.69152A873.27744 873.27744 0 0 0 49.38752 493.68576l-0.99328 1.58208c-2.1504 3.41504-4.82816 7.65952-6.97856 12.52864a60.2624 60.2624 0 0 0-4.08576 37.28896l0.21504 0.96256a64 64 0 0 0 6.64576 16.7424l2.44224 4.2496a809.22624 809.22624 0 0 0 58.21952 83.18464 810.5984 810.5984 0 0 0 78.91968 86.89152 709.04832 709.04832 0 0 0 40.12032 35.33312l-105.40032 103.71072a30.71488 30.71488 0 1 0 43.08992 43.78624l112.6912-110.87872 7.78752 5.5296 1.1008 0.74752a462.85824 462.85824 0 0 0 143.53408 61.52192 381.38368 381.38368 0 0 0 115.00544 9.0368 397.68064 397.68064 0 0 0 90.87488-17.58208c86.93248-27.35616 170.46016-84.02432 248.30976-168.48896a891.21792 891.21792 0 0 0 42.07104-49.34144 786.65216 786.65216 0 0 0 55.71072-79.03744l1.13152-1.80736c2.05824-3.2768 4.61824-7.35744 6.87104-12.32384a60.7488 60.7488 0 0 0 4.03968-37.04832zM226.09408 692.58752a750.0544 750.0544 0 0 1-73.06752-80.49152 747.85792 747.85792 0 0 1-53.72416-76.69248l-1.6384-2.87232c0.5376-1.07008 1.72544-2.95424 2.69824-4.49536l1.16224-1.84832a811.33056 811.33056 0 0 1 103.81312-132.9408c76.93824-79.4368 157.93664-128.66048 240.7424-146.29376 19.6096-4.16768 40.44288-6.57408 61.93152-7.1424h11.96032c21.48352 0.5632 42.32704 2.9696 61.94688 7.14752 41.43616 8.8064 83.13344 26.0608 124.0576 51.13344l-97.42848 95.86688a166.96832 166.96832 0 0 0-94.55616-29.2352c-92.5952 0-167.93088 75.33568-167.93088 167.93088 0 34.0736 10.22976 65.792 27.73504 92.29312L267.96032 729.088a639.2832 639.2832 0 0 1-41.86624-36.50048z m394.3936-159.92832c0 58.72128-47.7696 106.496-106.496 106.496a105.71264 105.71264 0 0 1-52.71552-14.09024l146.01728-143.6672a105.856 105.856 0 0 1 13.19424 51.26144z m-212.98688 0c0-58.72128 47.77472-106.49088 106.49088-106.49088 17.82784 0 34.61632 4.4544 49.39776 12.23168l-144.4096 142.09536a105.73824 105.73824 0 0 1-11.47904-47.83616z m520.25856 4.31616l-1.38752 2.23232a727.2192 727.2192 0 0 1-51.47136 73.0112 832.1024 832.1024 0 0 1-39.23968 46.02368c-70.44096 76.42624-144.96768 127.39072-221.63968 151.51104a336.72192 336.72192 0 0 1-76.89216 14.88384 320.06144 320.06144 0 0 1-96.25088-7.54688 400.8448 400.8448 0 0 1-122.03008-51.88096l97.56672-96.00512a166.92224 166.92224 0 0 0 97.57696 31.39072c92.60032 0 167.936-75.33568 167.936-167.936a166.94784 166.94784 0 0 0-29.81376-95.36512l105.04192-103.35744 1.10592 0.78336a632.68864 632.68864 0 0 1 70.92736 65.30048 819.456 819.456 0 0 1 99.54304 129.87904l1.60256 2.81088c-0.59392 1.11104-1.63328 2.76992-2.57536 4.26496z" fill="#515151" p-id="17401"></path></svg>