<?xml version="1.0" standalone="no"?><!DOCTYPE svg PUBLIC "-//W3C//DTD SVG 1.1//EN" "http://www.w3.org/Graphics/SVG/1.1/DTD/svg11.dtd"><svg t="1548315275992" class="icon" style="" viewBox="0 0 1024 1024" version="1.1" xmlns="http://www.w3.org/2000/svg" p-id="3190" xmlns:xlink="http://www.w3.org/1999/xlink" width="200" height="200"><defs><style type="text/css"></style></defs><path d="M-664.554667 249.408" p-id="3191"></path><path d="M-664.554667 249.408" p-id="3192"></path><path d="M507.413333 376.426667l5.482667 0c63.701333 0 116.458667 52.757333 116.458667 116.458667l0 7.296L507.413333 376.426667zM340.053333 407.381333c-12.736 25.472-21.845333 54.570667-21.845333 85.504 0 107.370667 87.338667 194.709333 194.709333 194.709333 30.933333 0 60.053333-9.088 85.504-21.845333l-60.053333-60.053333c-7.296 1.834667-16.384 3.648-25.472 3.648-63.701333 0-116.458667-52.757333-116.458667-116.458667 0-9.088 1.834667-18.197333 3.648-25.472L340.053333 407.381333zM125.354667 192.682667l49.130667-49.130667 687.786667 687.786667-49.130667 49.130667c-43.626667-43.093333-87.573333-85.909333-131.008-129.173333-52.757333 21.845333-109.184 32.768-169.194667 32.768-194.709333 0-360.256-120.106667-427.605333-291.114667 30.933333-76.437333 81.856-141.909333 145.557333-192.874667C195.413333 264.576 160.554667 228.458667 125.354667 192.682667zM512.896 298.176c-25.472 0-49.130667 5.482667-70.954667 14.549333l-83.690667-83.690667c47.317333-18.197333 100.074667-27.285333 154.645333-27.285333 194.709333 0 358.421333 120.106667 425.770667 291.114667-29.12 72.789333-74.602667 134.656-132.821333 183.765333l-112.789333-112.789333c9.088-21.845333 14.549333-45.482667 14.549333-70.954667C707.584 385.514667 620.266667 298.176 512.896 298.176z" p-id="3193"></path></svg>