<?xml version="1.0" standalone="no"?><!DOCTYPE svg PUBLIC "-//W3C//DTD SVG 1.1//EN" "http://www.w3.org/Graphics/SVG/1.1/DTD/svg11.dtd"><svg t="1532672337688" class="icon" style="" viewBox="0 0 1024 1024" version="1.1" xmlns="http://www.w3.org/2000/svg" p-id="18425" xmlns:xlink="http://www.w3.org/1999/xlink" width="32" height="32"><defs><style type="text/css"></style></defs><path d="M584.8177777777781 584.9315555555547c-28.330666666666662 0-51.19999999999999-22.869333333333326-51.19999999999999-51.19999999999999 0-28.103111111111108 22.64177777777776-50.74488888888888 50.631111111111096-51.08622222222221-21.27644444444444-15.928888888888878-47.5591111111111-25.713777777777764-76.23111111111112-25.713777777777764-70.65599999999999 0-127.99999999999997 57.34399999999998-127.99999999999997 127.99999999999997s57.34399999999998 127.99999999999997 127.99999999999997 127.99999999999997S636.0177777777785 655.5875555555549 636.0177777777785 584.9315555555547c0-10.695111111111112-1.7066666666666663-20.9351111111111-4.209777777777777-30.947555555555546-7.850666666666658 18.20444444444444-25.941333333333326 30.947555555555546-46.99022222222221 30.947555555555546z" p-id="18426" fill="#0889df"></path><path d="M936.0497777777778 438.8408888888892c9.898666666666664-10.012444444444444 9.898666666666664-26.168888888888883 0-36.18133333333333s-25.941333333333326-10.012444444444444-35.72622222222221 0L830.5777777777773 473.3155555555556c-26.282666666666657-36.636444444444436-58.25422222222221-68.72177777777776-94.89066666666665-94.89066666666665l67.4702222222222-110.4782222222222c6.940444444444442-13.311999999999994 2.8444444444444437-30.378666666666657-9.215999999999998-38.001777777777775-12.060444444444439-7.7368888888888865-27.534222222222215-3.0719999999999987-34.58844444444444 10.239999999999998l-67.69777777777777 110.93333333333328c-49.37955555555554-26.396444444444445-104.67555555555553-43.00799999999998-163.4986666666666-46.648888888888884 0-0.2275555555555555 0.11377777777777776-0.455111111111111 0.11377777777777776-0.6826666666666665V175.21777777777862c0-13.994666666666664-11.377777777777775-25.258666666666663-25.258666666666663-25.258666666666663-13.994666666666664 0-25.258666666666663 11.377777777777775-25.258666666666663 25.258666666666663v128.56888888888884c0 0.2275555555555555 0.11377777777777776 0.455111111111111 0.11377777777777776 0.6826666666666665-56.547555555555526 3.52711111111111-109.79555555555554 19.000888888888888-157.69599999999997 43.57688888888887L249.74222222222232 238.93333333333345c-6.712888888888889-12.060444444444439-21.61777777777777-16.27022222222222-33.2231111111111-9.215999999999998-11.605333333333327 6.940444444444442-15.58755555555555 22.414222222222218-8.874666666666664 34.58844444444444l70.20088888888887 108.65777777777777c-36.636444444444436 24.917333333333332-69.0631111111111 55.7511111111111-95.80088888888888 91.13599999999998L114.3466666666663 393.67111111111143c-9.443555555555555-9.898666666666664-24.917333333333332-9.898666666666664-34.36088888888888 0s-9.443555555555555 25.941333333333326 0 35.839999999999996l68.72177777777776 71.56622222222221c1.820444444444444 1.9342222222222216 3.9822222222222194 3.0719999999999987 6.1439999999999975 4.209777777777777-14.677333333333332 25.031111111111105-26.965333333333323 51.6551111111111-36.06755555555553 79.7582222222222h4.892444444444442c0 7.05422222222222 2.8444444444444437 13.425777777777778 7.3955555555555526 18.090666666666664 58.14044444444443 153.94133333333332 204.79999999999995 263.5093333333332 377.28711111111085 263.5093333333332 179.08622222222223 0 330.8657777777777-118.10133333333332 383.8862222222222-281.6H887.4666666666631c0-0.11377777777777776-0.11377777777777776-0.2275555555555555-0.11377777777777776-0.2275555555555555-0.11377777777777776-6.1439999999999975-2.503111111111111-11.491555555555552-6.0302222222222195-15.928888888888878-6.826666666666665-18.20444444444444-14.563555555555553-35.839999999999996-23.77955555555555-52.6791111111111 2.6168888888888877-1.2515555555555555 5.119999999999999-2.730666666666666 7.1679999999999975-4.778666666666666l71.33866666666663-72.5902222222222zM508.0177777777777 815.3315555555555c-149.84533333333331 0-277.50399999999985-94.54933333333331-329.04533333333325-227.783111111111 0.11377777777777776-0.910222222222222 0.5688888888888888-1.7066666666666663 0.5688888888888888-2.6168888888888877 0-3.8684444444444432-1.0239999999999998-7.509333333333331-2.503111111111111-10.808888888888886 53.70311111111111-128.79644444444443 178.97244444444436-219.59111111111108 325.8595555555554-219.59111111111108 149.9591111111111 0 277.7315555555555 94.54933333333331 329.38666666666666 227.783111111111-0.11377777777777776 0.910222222222222-0.5688888888888888 1.7066666666666663-0.5688888888888888 2.6168888888888877 0 3.640888888888888 0.7964444444444441 7.05422222222222 2.1617777777777776 10.126222222222223-53.47555555555555 129.13777777777776-178.8586666666666 220.27377777777772-325.8595555555554 220.27377777777772z" p-id="18427" fill="#0889df"></path></svg>